<svg width="72" height="72" viewBox="0 0 72 72" fill="none" xmlns="http://www.w3.org/2000/svg">
<g clip-path="url(#clip0_10_2)">
<path d="M36.264 14.4601C40.6859 12.2862 45.5752 11.235 50.4998 11.3993C55.4245 11.5635 60.2328 12.9383 64.5 15.4021C64.904 15.6354 65.2481 15.9596 65.5048 16.3492C65.7616 16.7387 65.9239 17.1828 65.979 17.6461L66 18.0001V57.0001C66 57.5267 65.8614 58.044 65.598 58.5C65.3347 58.9561 64.956 59.3348 64.5 59.5981C64.0439 59.8614 63.5266 60 63 60C62.4734 60 61.9561 59.8614 61.5 59.5981C57.8515 57.4916 53.7129 56.3827 49.5 56.3827C45.2871 56.3827 41.1485 57.4916 37.5 59.5981C37.0439 59.8614 36.5266 60 36 60C35.4734 60 34.9561 59.8614 34.5 59.5981C30.986 57.5689 27.0148 56.4638 22.9577 56.3862C18.9006 56.3086 14.8901 57.2609 11.301 59.1541L10.32 59.6941L10.011 59.8261L9.864 59.8741L9.534 59.9521L9.351 59.9821L9 60.0001H8.874L8.544 59.9641L8.313 59.9221L7.989 59.8261L7.611 59.6581L7.326 59.4901L7.059 59.2891L6.879 59.1211L6.66 58.8751L6.468 58.6081L6.402 58.5001L6.306 58.3201L6.174 58.0111L6.126 57.8641L6.048 57.5341L6.018 57.3511L6.006 57.2041L6 57.0001V18.0001C6.00001 17.4735 6.13864 16.9562 6.40194 16.5001C6.66525 16.0441 7.04395 15.6654 7.5 15.4021C11.7672 12.9383 16.5755 11.5635 21.5002 11.3993C26.4248 11.235 31.3141 12.2862 35.736 14.4601L36 14.5921L36.264 14.4601Z" fill="url(#paint0_linear_10_2)"/>
<path d="M36 15V60" stroke="#369466" stroke-width="0.15"/>
<path d="M47.1228 34.014C47.5226 34.2454 47.5219 34.8227 47.1217 35.0532L28.6544 45.6871C28.2541 45.9176 27.7544 45.6283 27.755 45.1665L27.7794 23.8564C27.7799 23.3945 28.2802 23.1064 28.68 23.3378L47.1228 34.014Z" fill="white"/>
</g>
<defs>
<linearGradient id="paint0_linear_10_2" x1="5" y1="24" x2="66" y2="45.5" gradientUnits="userSpaceOnUse">
<stop stop-color="#80FDC4"/>
<stop offset="0.255" stop-color="#41C287"/>
<stop offset="0.628145" stop-color="#39B37A"/>
<stop offset="0.934354" stop-color="#3B7357"/>
</linearGradient>
<clipPath id="clip0_10_2">
<rect width="72" height="72" fill="white"/>
</clipPath>
</defs>
</svg>
